<?xml version="1.0" encoding="utf-8"?>
<!-- Generator: Adobe Illustrator 25.2.1, SVG Export Plug-In . SVG Version: 6.00 Build 0)  -->
<svg version="1.0" id="Layer_1" xmlns="http://www.w3.org/2000/svg" xmlns:xlink="http://www.w3.org/1999/xlink" x="0px" y="0px"
	 viewBox="0 0 1693.8 854.8" style="enable-background:new 0 0 1693.8 854.8;" xml:space="preserve">
<style type="text/css">
	.st0{fill:url(#SVGID_1_);}
	.st1{fill:#084E87;}
	.st2{fill:url(#SVGID_2_);}
	.st3{fill:url(#SVGID_3_);}
	.st4{fill:url(#SVGID_4_);}
	.st5{fill:url(#SVGID_5_);}
	.st6{fill:url(#SVGID_6_);}
	.st7{fill:url(#SVGID_7_);}
	.st8{fill:url(#SVGID_8_);}
	.st9{fill:url(#SVGID_9_);}
</style>
<g>
	<g>
		<linearGradient id="SVGID_1_" gradientUnits="userSpaceOnUse" x1="478.98" y1="186.0086" x2="974.001" y2="649.7352">
			<stop  offset="0.3937" style="stop-color:#3DB54A"/>
			<stop  offset="0.8748" style="stop-color:#084E87"/>
			<stop  offset="0.9341" style="stop-color:#2D9762"/>
		</linearGradient>
		<polygon class="st0" points="477.6,10.6 633.7,18.1 957.3,343.9 731.1,574.6 556.8,571.7 788.9,334.8 		"/>
		<polygon class="st1" points="868.6,254.7 957.3,343.9 1230.6,29.6 1073.9,21.8 		"/>
		<polygon class="st1" points="864.8,438.2 957.3,344.4 1364,828.2 1189.7,828.3 		"/>
	</g>
	<g>
		<linearGradient id="SVGID_2_" gradientUnits="userSpaceOnUse" x1="495.166" y1="200.9293" x2="121.8499" y2="655.2943">
			<stop  offset="0.6198" style="stop-color:#084E87"/>
			<stop  offset="1" style="stop-color:#00AEEF"/>
		</linearGradient>
		<path class="st2" d="M30.1,571.3L292,19.2h145l106.3,552.2H407.9l-14.6-96H209.2l-38.7,96H30.1z M378.7,363.3l-30.6-214.8
			l-90.3,214.8H378.7z"/>
	</g>
	<g>
		<linearGradient id="SVGID_3_" gradientUnits="userSpaceOnUse" x1="1604.6547" y1="68.3624" x2="1274.7034" y2="329.8795">
			<stop  offset="0" style="stop-color:#1C75BC"/>
			<stop  offset="0.4547" style="stop-color:#084E87"/>
		</linearGradient>
		<path class="st3" d="M1243,573.4V29.9h239.5c60.6,0,106.8,14.6,138.6,43.7c31.7,29.1,47.6,71.3,47.6,126.4
			c0,57.8-15.6,102.1-46.9,133c-31.3,30.9-76.3,46.3-135,46.3h-109.1v194.1H1243z M1377.6,269.7h88.8c24.2,0,42-5.3,53.5-16
			c11.5-10.7,17.2-27.2,17.2-49.6c0-21.6-6-37.8-17.9-48.5c-12-10.7-30-16-54.2-16h-87.4V269.7z"/>
	</g>
	<linearGradient id="SVGID_4_" gradientUnits="userSpaceOnUse" x1="1324.3279" y1="241.9492" x2="1098.1464" y2="780.325">
		<stop  offset="0.237" style="stop-color:#BCBEC0"/>
		<stop  offset="1" style="stop-color:#E6E7E8"/>
	</linearGradient>
	<polygon class="st4" points="1414.2,776.9 1371.5,825 966.8,344.3 1235.7,30.8 1235.7,103.4 1047.2,344.4 	"/>
	<linearGradient id="SVGID_5_" gradientUnits="userSpaceOnUse" x1="451.5862" y1="291.3923" x2="777.3331" y2="291.3923">
		<stop  offset="0.3937" style="stop-color:#BCBEC0"/>
		<stop  offset="0.8748" style="stop-color:#E6E7E8"/>
	</linearGradient>
	<polygon class="st5" points="472.6,12.7 451.6,69.1 699,327.9 537.2,506.9 549.7,570.1 777.3,334.5 	"/>
	<linearGradient id="SVGID_6_" gradientUnits="userSpaceOnUse" x1="25.0557" y1="285.6738" x2="292.0311" y2="285.6738">
		<stop  offset="0.3937" style="stop-color:#BCBEC0"/>
		<stop  offset="0.8748" style="stop-color:#E6E7E8"/>
	</linearGradient>
	<polygon class="st6" points="292,19.2 257.9,0 25.1,504.5 30.1,571.3 	"/>
	<linearGradient id="SVGID_7_" gradientUnits="userSpaceOnUse" x1="344.3017" y1="9.5977" x2="513.2263" y2="9.5977">
		<stop  offset="0.4935" style="stop-color:#BCBEC0"/>
		<stop  offset="0.8653" style="stop-color:#E6E7E8"/>
	</linearGradient>
	<polygon class="st7" points="437,19.2 423.2,0.4 257.9,0 292,19.2 	"/>
	<linearGradient id="SVGID_8_" gradientUnits="userSpaceOnUse" x1="1518.2925" y1="156.2357" x2="1429.5494" y2="226.5728">
		<stop  offset="0.237" style="stop-color:#BCBEC0"/>
		<stop  offset="1" style="stop-color:#E6E7E8"/>
	</linearGradient>
	<path class="st8" d="M1520.7,255.1l-129,0c0,0,0,0,0,0v-99.6h129c1,0,1.8,0.8,1.8,1.8v96.2C1522.4,254.3,1521.6,255.1,1520.7,255.1
		z"/>
	<linearGradient id="SVGID_9_" gradientUnits="userSpaceOnUse" x1="1391.9401" y1="396.1443" x2="1393.8052" y2="562.1334">
		<stop  offset="2.890541e-02" style="stop-color:#BCBEC0"/>
		<stop  offset="0.9185" style="stop-color:#A7A9AC"/>
	</linearGradient>
	<polygon class="st9" points="1376.9,573.4 1408.8,536.8 1408.8,379.3 1376.9,379.3 	"/>
	<g>
		<g>
			<path class="st1" d="M83,646.2H68.8v77.6H56v-77.6H41.8v-11.8H83V646.2z"/>
			<path class="st1" d="M159.1,723.8h-35.7v-89.5h35.4v11.8h-22.5v26.1h19.4v11.6h-19.4V712h22.9V723.8z"/>
			<path class="st1" d="M244.2,715.7c0,5.5-2.6,8.2-7.9,8.2h-26.9c-5.1,0-7.7-2.7-7.7-8.2v-73.1c0-5.5,2.6-8.2,7.7-8.2h26.9
				c5.2,0,7.9,2.7,7.9,8.2v20.9h-12.8v-17.7h-16.7v66.5h16.7v-18.8h12.8V715.7z"/>
			<path class="st1" d="M331.5,723.8h-13v-40.1H301v40.1h-12.9v-89.5H301v36.9h17.5v-36.9h13V723.8z"/>
			<path class="st1" d="M419.2,723.8H408l-20.7-56.3c0.6,2.7,0.8,4.9,0.8,6.5v49.9h-12.6v-89.5h11.3l20.7,55.2
				c-0.6-2.7-0.8-4.9-0.8-6.5v-48.7h12.6V723.8z"/>
			<path class="st1" d="M506.9,715.7c0,5.5-2.6,8.2-7.8,8.2h-28c-5.1,0-7.7-2.7-7.7-8.2v-73.1c0-5.5,2.6-8.2,7.7-8.2h28
				c5.2,0,7.8,2.7,7.8,8.2V715.7z M494,712.3v-66.5h-17.7v66.5H494z"/>
			<path class="st1" d="M584.9,723.8h-33.9v-89.5H564v77.5h21V723.8z"/>
			<path class="st1" d="M669.9,715.7c0,5.5-2.6,8.2-7.8,8.2h-28c-5.1,0-7.7-2.7-7.7-8.2v-73.1c0-5.5,2.6-8.2,7.7-8.2h28
				c5.2,0,7.8,2.7,7.8,8.2V715.7z M657,712.3v-66.5h-17.7v66.5H657z"/>
			<path class="st1" d="M756.7,715.7c0,5.5-2.6,8.2-7.9,8.2h-27.1c-5.1,0-7.7-2.7-7.7-8.2v-73.1c0-5.5,2.6-8.2,7.8-8.2h26.9
				c5.2,0,7.9,2.7,7.9,8.2v19.1h-12.9v-15.8h-16.8v66.5h16.8v-25h-9.6v-11.4h22.5V715.7z"/>
			<path class="st1" d="M813.9,723.8H801v-89.5h12.9V723.8z"/>
			<path class="st1" d="M894.1,723.8h-35.7v-89.5h35.4v11.8h-22.5v26.1h19.4v11.6h-19.4V712h22.9V723.8z"/>
			<path class="st1" d="M978,715.7c0,5.5-2.6,8.2-7.8,8.2h-25.9c-5.2,0-7.8-2.7-7.8-8.2v-21.3h12.9v18.2h15.7V695l-25.8-25.4
				c-1.9-1.9-2.8-4.3-2.8-7.1v-19.9c0-5.5,2.6-8.2,7.8-8.2h25.9c5.2,0,7.8,2.7,7.8,8.1v20h-12.9v-16.9h-15.7v16.2l25.8,25.3
				c1.9,1.8,2.8,4.3,2.8,7.3V715.7z"/>
		</g>
	</g>
</g>
</svg>
